<svg width="128" height="128" viewBox="0 0 128 128" fill="none" xmlns="http://www.w3.org/2000/svg">
<path d="M13.3333 50.6667H114.667V101.333H13.3333V50.6667Z" fill="#62727A"/>
<path d="M13.3333 101.333H114.667V112H13.3333V101.333Z" fill="#B0BEC5"/>
<path d="M72 64H104V112H72V64Z" fill="#D6EEF0"/>
<path d="M24 64H61.3333V93.3333H24V64Z" fill="#E3F2FD"/>
<path d="M26.6667 66.6667H58.6667V90.6667H26.6667V66.6667Z" fill="#1E88E5"/>
<path d="M97.3333 89.3333C96.5333 89.3333 96 89.8667 96 90.6667V96C96 96.8 96.5333 97.3333 97.3333 97.3333C98.1333 97.3333 98.6667 96.8 98.6667 96V90.6667C98.6667 89.8667 98.1333 89.3333 97.3333 89.3333Z" fill="#62727A"/>
<path d="M64 58.6667C68.4183 58.6667 72 55.085 72 50.6667C72 46.2484 68.4183 42.6667 64 42.6667C59.5817 42.6667 56 46.2484 56 50.6667C56 55.085 59.5817 58.6667 64 58.6667Z" fill="#D32358"/>
<path d="M96 58.6667C100.418 58.6667 104 55.085 104 50.6667C104 46.2484 100.418 42.6667 96 42.6667C91.5817 42.6667 88 46.2484 88 50.6667C88 55.085 91.5817 58.6667 96 58.6667Z" fill="#D32358"/>
<path d="M32 58.6667C36.4183 58.6667 40 55.085 40 50.6667C40 46.2484 36.4183 42.6667 32 42.6667C27.5817 42.6667 24 46.2484 24 50.6667C24 55.085 27.5817 58.6667 32 58.6667Z" fill="#D32358"/>
<path d="M106.667 16H21.3333C18.4 16 16 18.4 16 21.3333V29.3333H112V21.3333C112 18.4 109.6 16 106.667 16Z" fill="#F144A1"/>
<path d="M56 29.3333H72V50.6667H56V29.3333Z" fill="#F144A1"/>
<path d="M98.6666 29.3333H85.3333L88 50.6667H104L98.6666 29.3333Z" fill="#F144A1"/>
<path d="M29.3333 29.3333H42.6667L40 50.6667H24L29.3333 29.3333Z" fill="#F144A1"/>
<path d="M80 58.6667C84.4183 58.6667 88 55.085 88 50.6667C88 46.2484 84.4183 42.6667 80 42.6667C75.5817 42.6667 72 46.2484 72 50.6667C72 55.085 75.5817 58.6667 80 58.6667Z" fill="#FFA000"/>
<path d="M120 50.6667C120 55.2 116.533 58.6667 112 58.6667C107.467 58.6667 104 55.2 104 50.6667C104 46.1333 107.467 42.6667 112 42.6667L120 50.6667Z" fill="#FFA000"/>
<path d="M48 58.6667C52.4183 58.6667 56 55.085 56 50.6667C56 46.2484 52.4183 42.6667 48 42.6667C43.5817 42.6667 40 46.2484 40 50.6667C40 55.085 43.5817 58.6667 48 58.6667Z" fill="#FFA000"/>
<path d="M8 50.6667C8 55.2 11.4667 58.6667 16 58.6667C20.5333 58.6667 24 55.2 24 50.6667C24 46.1333 20.5333 42.6667 16 42.6667L8 50.6667Z" fill="#FFA000"/>
<path d="M85.3333 29.3333H72V50.6667H88L85.3333 29.3333Z" fill="#FFC107"/>
<path d="M112 29.3333H98.6667L104 50.6667H120L112 29.3333Z" fill="#FFC107"/>
<path d="M42.6667 29.3333H56V50.6667H40L42.6667 29.3333Z" fill="#FFC107"/>
<path d="M16 29.3333H29.3333L24 50.6667H8L16 29.3333Z" fill="#FFC107"/>
</svg>
